<svg xmlns="http://www.w3.org/2000/svg" fill="none">
  <defs id="symbols">
    <symbol viewBox="0 0 32 32" fill="none" id="home-icon">
      <path fill-rule="evenodd" clip-rule="evenodd"
            d="M23.7288 13.8292L21.8639 12.4229V8.53465H19.1992V10.4123L15.9998 8L8.26804 13.8292C8.10858 13.9771 8.01253 14.1809 8 14.398V23.3008C8.00078 23.6846 8.31152 23.9956 8.69533 23.9968H23.3015C23.6853 23.9956 23.996 23.6846 23.9968 23.3008V14.3987C23.9845 14.1814 23.8884 13.9773 23.7288 13.8292Z"
            stroke="currentColor" stroke-width="1.5" stroke-linecap="round" stroke-linejoin="round"/>
      <path fill-rule="evenodd" clip-rule="evenodd"
            d="M23.7288 13.8292L21.8639 12.4229V8.53465H19.1992V10.4123L15.9998 8L8.26804 13.8292C8.10858 13.9771 8.01253 14.1809 8 14.398V23.3008C8.00078 23.6846 8.31152 23.9956 8.69533 23.9968H23.3015C23.6853 23.9956 23.996 23.6846 23.9968 23.3008V14.3987C23.9845 14.1814 23.8884 13.9773 23.7288 13.8292Z"
            stroke="currentColor" stroke-width="1.5" stroke-linecap="round" stroke-linejoin="round"/>
    </symbol>
    <symbol viewBox="0 0 32 32" fill="none" id="movies-icon">
      <path d="M8 24V8" stroke="currentColor" fill="none" stroke-width="1.5" stroke-linecap="round"
            stroke-linejoin="round"/>
      <path d="M24 8V24" stroke="currentColor" stroke-width="1.5" stroke-linecap="round" stroke-linejoin="round"/>
      <path d="M12.2667 8H19.7333V14.4H12.2667V8Z" stroke="currentColor" stroke-width="1.5" stroke-linecap="round"
            stroke-linejoin="round"/>
      <path d="M12.2667 17.6H19.7333V24H12.2667V17.6Z" stroke="currentColor" stroke-width="1.5" stroke-linecap="round"
            stroke-linejoin="round"/>
      <path
        d="M10.4 9.6C10.4 9.65274 10.3843 9.70429 10.355 9.74815C10.3257 9.792 10.2841 9.82618 10.2354 9.84636C10.1866 9.86655 10.133 9.87183 10.0813 9.86154C10.0296 9.85125 9.98205 9.82585 9.94476 9.78856C9.90746 9.75126 9.88207 9.70375 9.87178 9.65202C9.86149 9.60029 9.86677 9.54667 9.88695 9.49795C9.90714 9.44922 9.94132 9.40757 9.98517 9.37827C10.029 9.34897 10.0806 9.33333 10.1333 9.33333C10.204 9.33333 10.2719 9.36142 10.3219 9.41143C10.3719 9.46144 10.4 9.52927 10.4 9.6Z"
        stroke="currentColor" stroke-width="1.5" stroke-linecap="round" stroke-linejoin="round"/>
      <path
        d="M10.4 13.8667C10.4 13.9194 10.3843 13.971 10.355 14.0148C10.3257 14.0587 10.2841 14.0928 10.2354 14.113C10.1866 14.1332 10.133 14.1385 10.0813 14.1282C10.0296 14.1179 9.98205 14.0925 9.94476 14.0552C9.90746 14.0179 9.88207 13.9704 9.87178 13.9187C9.86149 13.867 9.86677 13.8133 9.88695 13.7646C9.90714 13.7159 9.94132 13.6742 9.98517 13.6449C10.029 13.6156 10.0806 13.6 10.1333 13.6C10.204 13.6 10.2719 13.6281 10.3219 13.6781C10.3719 13.7281 10.4 13.7959 10.4 13.8667Z"
        stroke="currentColor" stroke-width="1.5" stroke-linecap="round" stroke-linejoin="round"/>
      <path
        d="M10.4 18.1333C10.4 18.1861 10.3843 18.2376 10.355 18.2815C10.3257 18.3253 10.2841 18.3595 10.2354 18.3797C10.1866 18.3999 10.133 18.4052 10.0813 18.3949C10.0296 18.3846 9.98205 18.3592 9.94476 18.3219C9.90746 18.2846 9.88207 18.2371 9.87178 18.1854C9.86149 18.1336 9.86677 18.08 9.88695 18.0313C9.90714 17.9826 9.94132 17.9409 9.98517 17.9116C10.029 17.8823 10.0806 17.8667 10.1333 17.8667C10.204 17.8667 10.2719 17.8948 10.3219 17.9448C10.3719 17.9948 10.4 18.0626 10.4 18.1333Z"
        stroke="currentColor" stroke-width="1.5" stroke-linecap="round" stroke-linejoin="round"/>
      <path
        d="M10.4 22.4C10.4 22.4527 10.3843 22.5043 10.355 22.5482C10.3257 22.592 10.2841 22.6262 10.2354 22.6464C10.1866 22.6665 10.133 22.6718 10.0813 22.6615C10.0296 22.6513 9.98205 22.6259 9.94476 22.5886C9.90746 22.5513 9.88207 22.5037 9.87178 22.452C9.86149 22.4003 9.86677 22.3467 9.88695 22.2979C9.90714 22.2492 9.94132 22.2076 9.98517 22.1783C10.029 22.149 10.0806 22.1333 10.1333 22.1333C10.204 22.1333 10.2719 22.1614 10.3219 22.2114C10.3719 22.2614 10.4 22.3293 10.4 22.4Z"
        stroke="currentColor" stroke-width="1.5" stroke-linecap="round" stroke-linejoin="round"/>
      <path
        d="M22.1333 9.6C22.1333 9.65274 22.1177 9.70429 22.0884 9.74815C22.0591 9.792 22.0174 9.82618 21.9687 9.84636C21.92 9.86655 21.8664 9.87183 21.8146 9.86154C21.7629 9.85125 21.7154 9.82585 21.6781 9.78856C21.6408 9.75126 21.6154 9.70375 21.6051 9.65202C21.5948 9.60029 21.6001 9.54667 21.6203 9.49795C21.6405 9.44922 21.6747 9.40757 21.7185 9.37827C21.7624 9.34897 21.8139 9.33333 21.8667 9.33333C21.9374 9.33333 22.0052 9.36142 22.0552 9.41143C22.1052 9.46144 22.1333 9.52927 22.1333 9.6Z"
        stroke="currentColor" stroke-width="1.5" stroke-linecap="round" stroke-linejoin="round"/>
      <path
        d="M22.1333 13.8667C22.1333 13.9194 22.1177 13.971 22.0884 14.0148C22.0591 14.0587 22.0174 14.0928 21.9687 14.113C21.92 14.1332 21.8664 14.1385 21.8146 14.1282C21.7629 14.1179 21.7154 14.0925 21.6781 14.0552C21.6408 14.0179 21.6154 13.9704 21.6051 13.9187C21.5948 13.867 21.6001 13.8133 21.6203 13.7646C21.6405 13.7159 21.6747 13.6742 21.7185 13.6449C21.7624 13.6156 21.8139 13.6 21.8667 13.6C21.9374 13.6 22.0052 13.6281 22.0552 13.6781C22.1052 13.7281 22.1333 13.7959 22.1333 13.8667Z"
        stroke="currentColor" stroke-width="1.5" stroke-linecap="round" stroke-linejoin="round"/>
      <path
        d="M22.1333 18.1333C22.1333 18.1861 22.1177 18.2376 22.0884 18.2815C22.0591 18.3253 22.0174 18.3595 21.9687 18.3797C21.92 18.3999 21.8664 18.4052 21.8146 18.3949C21.7629 18.3846 21.7154 18.3592 21.6781 18.3219C21.6408 18.2846 21.6154 18.2371 21.6051 18.1854C21.5948 18.1336 21.6001 18.08 21.6203 18.0313C21.6405 17.9826 21.6747 17.9409 21.7185 17.9116C21.7624 17.8823 21.8139 17.8667 21.8667 17.8667C21.9374 17.8667 22.0052 17.8948 22.0552 17.9448C22.1052 17.9948 22.1333 18.0626 22.1333 18.1333Z"
        stroke="currentColor" stroke-width="1.5" stroke-linecap="round" stroke-linejoin="round"/>
      <path
        d="M22.1333 22.4C22.1333 22.4527 22.1177 22.5043 22.0884 22.5482C22.0591 22.592 22.0174 22.6262 21.9687 22.6464C21.92 22.6665 21.8664 22.6718 21.8146 22.6615C21.7629 22.6513 21.7154 22.6259 21.6781 22.5886C21.6408 22.5513 21.6154 22.5037 21.6051 22.452C21.5948 22.4003 21.6001 22.3467 21.6203 22.2979C21.6405 22.2492 21.6747 22.2076 21.7185 22.1783C21.7624 22.149 21.8139 22.1333 21.8667 22.1333C21.9374 22.1333 22.0052 22.1614 22.0552 22.2114C22.1052 22.2614 22.1333 22.3293 22.1333 22.4Z"
        stroke="currentColor" stroke-width="1.5" stroke-linecap="round" stroke-linejoin="round"/>
    </symbol>
    <symbol viewBox="0 0 32 32" fill="none" id="tv-icon">
      <path d="M8.38461 9.6H23.6154V20.7692H8.38461V9.6Z" stroke="currentColor" stroke-width="1.5"
            stroke-linecap="round" stroke-linejoin="round"/>
      <path d="M18.5385 9.6V20.7692" stroke="currentColor" stroke-width="1.5" stroke-linecap="round"
            stroke-linejoin="round"/>
      <path d="M20.5692 15.6923H21.5846" stroke="currentColor" stroke-width="1.5" stroke-linecap="round"
            stroke-linejoin="round"/>
      <path d="M20.5692 17.7231H21.5846" stroke="currentColor" stroke-width="1.5" stroke-linecap="round"
            stroke-linejoin="round"/>
      <path
        d="M21.0769 12.9C21.1271 12.9 21.1762 12.9149 21.2179 12.9428C21.2597 12.9707 21.2922 13.0103 21.3114 13.0567C21.3307 13.1031 21.3357 13.1541 21.3259 13.2034C21.3161 13.2526 21.2919 13.2978 21.2564 13.3333C21.2209 13.3688 21.1757 13.393 21.1264 13.4028C21.0772 13.4126 21.0262 13.4076 20.9798 13.3884C20.9334 13.3692 20.8937 13.3366 20.8659 13.2949C20.838 13.2531 20.8231 13.2041 20.8231 13.1538C20.8231 13.0865 20.8498 13.022 20.8974 12.9744C20.945 12.9267 21.0096 12.9 21.0769 12.9"
        stroke="currentColor" stroke-width="1.5" stroke-linecap="round" stroke-linejoin="round"/>
      <path d="M9.39999 22.8L11.4308 20.7692" stroke="currentColor" stroke-width="1.5" stroke-linecap="round"
            stroke-linejoin="round"/>
      <path d="M22.6 22.8L20.5692 20.7692" stroke="currentColor" stroke-width="1.5" stroke-linecap="round"
            stroke-linejoin="round"/>
    </symbol>
    <symbol viewBox="0 0 512 512" id="search-icon">
      <g transform="matrix(0.5499999999999999,0,0,0.5499999999999999,115.20126342773435,115.20134582519529)">
        <path d="M505.749,475.587l-145.6-145.6c28.203-34.837,45.184-79.104,45.184-127.317c0-111.744-90.923-202.667-202.667-202.667
			S0,90.925,0,202.669s90.923,202.667,202.667,202.667c48.213,0,92.48-16.981,127.317-45.184l145.6,145.6
			c4.16,4.16,9.621,6.251,15.083,6.251s10.923-2.091,15.083-6.251C514.091,497.411,514.091,483.928,505.749,475.587z
			 M202.667,362.669c-88.235,0-160-71.765-160-160s71.765-160,160-160s160,71.765,160,160S290.901,362.669,202.667,362.669z" fill="currentColor"></path>
      </g>
    </symbol>
    <symbol viewBox="0 0 16 16" fill="none" id="star-icon">
      <path d="M8.00001 3.61354L8.95841 6.3652L9.13371 6.86851H9.66668H12.5206L10.3106 8.62807L9.91741 8.94115L10.0575 9.42387L10.8685 12.2179L8.41985 10.5637L8.00001 10.2801L7.58017 10.5637L5.13155 12.2179L5.94251 9.42387L6.08261 8.94115L5.68939 8.62807L3.47942 6.86851H6.33334H6.86631L7.04161 6.3652L8.00001 3.61354Z" fill="currentColor" stroke="currentColor" stroke-width="1.5"/>
    </symbol>
    <symbol viewBox="0 0 24 24" fill="none" id="right-arrow-icon">
      <path d="M12.8233 10.7627L9.06063 7L9.41397 6.64666L14.0603 11.293L9.41397 15.9393L9.06063 15.586L12.8233 11.8233L13.3536 11.293L12.8233 10.7627Z" stroke="currentColor" stroke-width="1.5"/>
    </symbol>
    <symbol viewBox="0 0 24 24" fill="none" id="left-arrow-icon">
      <path d="M11.1767 13.2373L14.9394 17L14.586 17.3533L9.93969 12.707L14.586 8.06066L14.9394 8.414L11.1767 12.1767L10.6464 12.707L11.1767 13.2373Z" stroke="currentColor" stroke-width="1.5"/>
    </symbol>
    <symbol viewBox="0 0 24 24" fill-rule="evenodd" clip-rule="evenodd" fill="#999" id="default-image-icon">
      <path d="M24 22h-24v-20h24v20zm-1-19h-22v18h22v-18zm-1 16h-19l4-7.492 3 3.048 5.013-7.556 6.987 12zm-11.848-2.865l-2.91-2.956-2.574 4.821h15.593l-5.303-9.108-4.806 7.243zm-4.652-11.135c1.38 0 2.5 1.12 2.5 2.5s-1.12 2.5-2.5 2.5-2.5-1.12-2.5-2.5 1.12-2.5 2.5-2.5zm0 1c.828 0 1.5.672 1.5 1.5s-.672 1.5-1.5 1.5-1.5-.672-1.5-1.5.672-1.5 1.5-1.5z"></path>
    </symbol>
  </defs>
</svg>
